<?xml version="1.0" encoding="UTF-8" standalone="no"?>
<svg
   xmlns:dc="http://purl.org/dc/elements/1.1/"
   xmlns:cc="http://creativecommons.org/ns#"
   xmlns:rdf="http://www.w3.org/1999/02/22-rdf-syntax-ns#"
   xmlns:svg="http://www.w3.org/2000/svg"
   xmlns="http://www.w3.org/2000/svg"
   xmlns:sodipodi="http://sodipodi.sourceforge.net/DTD/sodipodi-0.dtd"
   xmlns:inkscape="http://www.inkscape.org/namespaces/inkscape"
   version="1.1"
   x="0px"
   y="0px"
   viewBox="0 0 77.773987 87.412163"
   xml:space="preserve"
   id="svg18"
   sodipodi:docname="eggs.svg"
   width="77.773987"
   height="87.412163"
   inkscape:version="0.92.2 (5c3e80d, 2017-08-06)"><metadata
     id="metadata24"><rdf:RDF><cc:Work
         rdf:about=""><dc:format>image/svg+xml</dc:format><dc:type
           rdf:resource="http://purl.org/dc/dcmitype/StillImage" /><dc:title></dc:title></cc:Work></rdf:RDF></metadata><defs
     id="defs22" /><sodipodi:namedview
     pagecolor="#ffffff"
     bordercolor="#666666"
     borderopacity="1"
     objecttolerance="10"
     gridtolerance="10"
     guidetolerance="10"
     inkscape:pageopacity="0"
     inkscape:pageshadow="2"
     inkscape:window-width="1555"
     inkscape:window-height="717"
     id="namedview20"
     showgrid="false"
     fit-margin-top="0"
     fit-margin-left="0"
     fit-margin-right="0"
     fit-margin-bottom="0"
     inkscape:zoom="1.888"
     inkscape:cx="38.3625"
     inkscape:cy="30.912165"
     inkscape:window-x="4556"
     inkscape:window-y="590"
     inkscape:window-maximized="0"
     inkscape:current-layer="svg18" /><path
     class="st3"
     d="m 1.5625,42.3 c -2.5,9.4 -2,19.2 1.5,27.6 1.1,2.8 2.5,5.2 4.1,7.4 -1.2,-4.3 -1.2,-9 -0.1,-13.5 3.6,-13.8 8.6,-19.6 12.2,-22.2 3,-2.2 6.9,-2.1 9.9,0 1.4,1 3,2.6 4.7,5 4.9,-15.1 10.9,-21.9 15.3,-25.1 0.4,-0.3 0.9,-0.6 1.4,-0.8 -4.8,-10.1 -9.7,-15.5 -13.6,-18.4 -2.1,-1.5 -4.5,-2.3 -6.9,-2.3 -2.4,0 -4.8,0.7 -6.9,2.2 -6.2,4.6 -14.9,15.1 -21.6,40.1 z"
     id="path4"
     inkscape:connector-curvature="0"
      /><path
     class="st3"
     d="m 55.1625,87 h 1.1 c 9.2,0.3 15.7,-4 19.3,-12.8 2.5,-6.3 2.9,-13.6 1.1,-20.5 -4.9,-18.7 -11.3,-26.5 -15.8,-29.8 -1.5,-1.1 -3.3,-1.7 -5,-1.7 -1.7,0 -3.4,0.5 -5,1.6 -4.3,3 -10.2,10 -15,26 1.8,3.4 3.6,7.8 5.2,13.7 0.6,0.2 1.3,0.4 1.8,0.8 1.8,1.3 4.4,4.4 6.3,11.5 0.8,2.8 0.6,5.8 -0.5,8.4 -0.3,0.7 -0.6,1.2 -0.9,1.8 2.2,0.7 4.7,1.1 7.4,1 z"
     id="path6"
     inkscape:connector-curvature="0"
      /><path
     class="st3"
     d="m 9.9625,64.5 c -1.3,4.7 -1,9.7 0.8,14 2.4,5.9 6.7,8.8 12.9,8.6 h 0.8 c 2.8,0.1 5.2,-0.4 7.3,-1.6 -0.2,-0.4 -0.4,-0.7 -0.5,-1.1 -1.1,-2.6 -1.2,-5.6 -0.5,-8.4 1.9,-7.1 4.5,-10.2 6.4,-11.5 0.3,-0.2 0.6,-0.4 1,-0.5 -3.5,-12.5 -7.8,-17.8 -10.8,-20 -1,-0.7 -2.1,-1.1 -3.2,-1.1 -1.1,0 -2.2,0.4 -3.2,1.1 -3.1,2.2 -7.6,7.6 -11,20.5 z"
     id="path8"
     inkscape:connector-curvature="0"
      /><g
     id="g16"
     transform="translate(-11.6375,-6)"><g
       id="g14"><g
         id="g12"><path
           class="st3"
           d="m 53.5,72.3 c 1.5,1.1 3.6,3.7 5.2,9.8 0.6,2.3 0.5,4.7 -0.4,6.9 -0.9,2.3 -2.8,4.6 -6.6,4.4 h -0.3 c -3.8,0.1 -5.7,-2.1 -6.6,-4.4 -0.9,-2.2 -1,-4.6 -0.4,-6.9 1.6,-6.1 3.8,-8.7 5.3,-9.8 1.2,-0.9 2.7,-0.9 3.8,0 z"
           id="path10"
           inkscape:connector-curvature="0"
            /></g></g></g></svg>